<?xml version="1.0" encoding="UTF-8"?>
<svg version="1.1" xmlns="http://www.w3.org/2000/svg" width="100" height="100">
<path d="M0 0 C33 0 66 0 100 0 C100 33 100 66 100 100 C67 100 34 100 0 100 C0 67 0 34 0 0 Z " fill="#D71539" transform="translate(0,0)"/>
<path d="M0 0 C0.99 0 1.98 0 3 0 C3 1.32 3 2.64 3 4 C3.66 3.67 4.32 3.34 5 3 C7.05859375 2.796875 7.05859375 2.796875 9.4375 2.75 C10.21996094 2.72421875 11.00242187 2.6984375 11.80859375 2.671875 C14 3 14 3 15.79296875 4.3046875 C17 6 17 6 16.875 9.375 C16.04127061 12.82902178 15.01599243 15.10748912 13 18 C13.66 18.4125 14.32 18.825 15 19.25 C15.66 19.8275 16.32 20.405 17 21 C17 22.32 17 23.64 17 25 C11.25 28 11.25 28 9 28 C9 26.68 9 25.36 9 24 C7.68 24 6.36 24 5 24 C5 26.31 5 28.62 5 31 C5.70125 30.67 6.4025 30.34 7.125 30 C10.28057113 28.90241004 12.68225608 28.77379019 16 29 C17 30 17 30 17.0625 33.0625 C17.041875 34.031875 17.02125 35.00125 17 36 C15.35 36.66 13.7 37.32 12 38 C12 38.66 12 39.32 12 40 C12.639375 40.309375 13.27875 40.61875 13.9375 40.9375 C16 42 16 42 17 43 C17.23192865 44.51469448 17.41215238 46.03754562 17.5625 47.5625 C17.64628906 48.38878906 17.73007813 49.21507812 17.81640625 50.06640625 C17.87699219 50.70449219 17.93757813 51.34257813 18 52 C19.32 52 20.64 52 22 52 C22 52.66 22 53.32 22 54 C15.16964286 57.34821429 15.16964286 57.34821429 10 56 C9.89042969 55.08476563 9.78085937 54.16953125 9.66796875 53.2265625 C9.50941406 52.03804687 9.35085937 50.84953125 9.1875 49.625 C9.03667969 48.44164062 8.88585937 47.25828125 8.73046875 46.0390625 C8.29300666 42.70467916 8.29300666 42.70467916 5 41 C5 43.31 5 45.62 5 48 C0.03739743 49.91539047 -4.86626838 51.60961435 -10 53 C-9.67 54.32 -9.34 55.64 -9 57 C-4.85906302 57.20970559 -4.85906302 57.20970559 -1 56 C-1.020625 55.195625 -1.04125 54.39125 -1.0625 53.5625 C-1 51 -1 51 0 50 C1.66617115 49.95936168 3.33388095 49.957279 5 50 C5.66 51.32 6.32 52.64 7 54 C2.59847117 58.54824646 0.5568581 59.18577979 -5.8125 59.3125 C-7.03582031 59.34988281 -8.25914063 59.38726562 -9.51953125 59.42578125 C-13.57673783 58.92944509 -15.17053089 57.89293384 -18 55 C-18.625 52.5 -18.625 52.5 -18 50 C-15.43025001 47.28340716 -13.94655411 46.08413814 -10.1875 45.75 C-9.465625 45.8325 -8.74375 45.915 -8 46 C-8 43.69 -8 41.38 -8 39 C-9.65 39 -11.3 39 -13 39 C-12.67 37.68 -12.34 36.36 -12 35 C-10.02 34.505 -10.02 34.505 -8 34 C-8.33 32.68 -8.66 31.36 -9 30 C-9.763125 30.20625 -10.52625 30.4125 -11.3125 30.625 C-14 31 -14 31 -17 29 C-17.58402904 25.82955666 -17.26756724 24.43043425 -15.5625 21.6875 C-10.41285428 18.29626989 -3.7849965 19.81333405 2 21 C2 21.66 2 22.32 2 23 C4.64 21.68 7.28 20.36 10 19 C8.75863281 19.08121094 7.51726563 19.16242187 6.23828125 19.24609375 C4.59642798 19.31176788 2.95449484 19.37546627 1.3125 19.4375 C0.49587891 19.49615234 -0.32074219 19.55480469 -1.16210938 19.61523438 C-7.10618864 19.78369006 -7.10618864 19.78369006 -9.68237305 17.52490234 C-11.91554318 14.51582378 -12.93144079 12.50929697 -13.4375 8.75 C-13 6 -13 6 -11 3 C-6.82339427 2.73481868 -3.95659266 2.68113578 0 4 C0 2.68 0 1.36 0 0 Z " fill="#F5C165" transform="translate(48,18)"/>
<path d="M0 0 C0.99 0 1.98 0 3 0 C3 1.32 3 2.64 3 4 C3.66 3.67 4.32 3.34 5 3 C7.05859375 2.796875 7.05859375 2.796875 9.4375 2.75 C10.21996094 2.72421875 11.00242187 2.6984375 11.80859375 2.671875 C14 3 14 3 15.7890625 4.30078125 C17 6 17 6 16.9375 9.4375 C15.93102548 13.26210316 15.09787171 14.63103928 12 17 C5.87766653 19.04077782 -1.5485949 19.77525431 -8 19 C-10.50528075 17.55650198 -11.26760393 16.56888005 -12.4765625 13.98046875 C-13.22814016 11.13681296 -13.46348846 8.91335603 -13 6 C-12.34 5.01 -11.68 4.02 -11 3 C-6.82339427 2.73481868 -3.95659266 2.68113578 0 4 C0 2.68 0 1.36 0 0 Z " fill="#F6C365" transform="translate(48,18)"/>
<path d="M0 0 C2 3 2 3 2 7 C2.70125 6.67 3.4025 6.34 4.125 6 C7.28057113 4.90241004 9.68225608 4.77379019 13 5 C14 6 14 6 14.0625 9.0625 C14.041875 10.031875 14.02125 11.00125 14 12 C12.35 12.66 10.7 13.32 9 14 C9 14.66 9 15.32 9 16 C9.9590625 16.4640625 9.9590625 16.4640625 10.9375 16.9375 C13 18 13 18 14 19 C14.23192865 20.51469448 14.41215238 22.03754562 14.5625 23.5625 C14.64628906 24.38878906 14.73007813 25.21507813 14.81640625 26.06640625 C14.87699219 26.70449219 14.93757813 27.34257813 15 28 C16.32 28 17.64 28 19 28 C19 28.66 19 29.32 19 30 C12.625 33.125 12.625 33.125 7 32 C6.34 27.71 5.68 23.42 5 19 C4.01 18.67 3.02 18.34 2 18 C1.67 19.65 1.34 21.3 1 23 C0.67 23 0.34 23 0 23 C0 15.41 0 7.82 0 0 Z " fill="#F6C265" transform="translate(51,42)"/>
<path d="M0 0 C0.33 0.99 0.66 1.98 1 3 C1.680625 3.474375 2.36125 3.94875 3.0625 4.4375 C3.701875 4.953125 4.34125 5.46875 5 6 C5 7.32 5 8.64 5 10 C-0.75 13 -0.75 13 -3 13 C-3 11.68 -3 10.36 -3 9 C-4.32 9 -5.64 9 -7 9 C-8.2062252 12.61867559 -8.10816918 15.92506251 -8.0625 19.6875 C-8.05798828 20.38939453 -8.05347656 21.09128906 -8.04882812 21.81445312 C-8.03706927 23.54300538 -8.01913454 25.27151365 -8 27 C-7.67 27 -7.34 27 -7 27 C-7 28.98 -7 30.96 -7 33 C-12.75 32.125 -12.75 32.125 -15 31 C-15 23.74 -15 16.48 -15 9 C-10.05 7.515 -10.05 7.515 -5 6 C-4.01 5.34 -3.02 4.68 -2 4 C-2.33 3.34 -2.66 2.68 -3 2 C-2.01 2 -1.02 2 0 2 C0 1.34 0 0.68 0 0 Z " fill="#F4BA63" transform="translate(60,33)"/>
<path d="M0 0 C1.32 0.66 2.64 1.32 4 2 C4 4.97 4 7.94 4 11 C1.03 10.67 -1.94 10.34 -5 10 C-4.938125 10.78375 -4.87625 11.5675 -4.8125 12.375 C-4.874375 13.24125 -4.93625 14.1075 -5 15 C-8.45245824 17.30163882 -9.94738713 17.34490322 -14 17 C-14.66 16.34 -15.32 15.68 -16 15 C-15.625 12.875 -15.625 12.875 -15 11 C-13.9275 10.71125 -12.855 10.4225 -11.75 10.125 C-8.18759512 9.18062368 -8.18759512 9.18062368 -5.8125 7.875 C-4 7 -4 7 0 7 C0 4.69 0 2.38 0 0 Z " fill="#DA273D" transform="translate(53,59)"/>
<path d="M0 0 C1.65 0 3.3 0 5 0 C5 7.26 5 14.52 5 22 C3.35 22 1.7 22 0 22 C0 14.74 0 7.48 0 0 Z " fill="#D81C3A" transform="translate(45,42)"/>
<path d="M0 0 C0.78552246 0.01047363 1.57104492 0.02094727 2.38037109 0.03173828 C3.23115234 0.03818359 4.08193359 0.04462891 4.95849609 0.05126953 C6.29267578 0.07640625 6.29267578 0.07640625 7.65380859 0.10205078 C8.99958984 0.11558594 8.99958984 0.11558594 10.37255859 0.12939453 C12.59157445 0.15300108 14.81005937 0.18592768 17.02880859 0.22705078 C17.35880859 0.88705078 17.68880859 1.54705078 18.02880859 2.22705078 C12.40380859 5.22705078 12.40380859 5.22705078 9.02880859 5.22705078 C9.02880859 4.56705078 9.02880859 3.90705078 9.02880859 3.22705078 C4.73880859 2.89705078 0.44880859 2.56705078 -3.97119141 2.22705078 C-1.97119141 0.22705078 -1.97119141 0.22705078 0 0 Z " fill="#D81D3B" transform="translate(40.97119140625,35.77294921875)"/>
<path d="M0 0 C1.32 0 2.64 0 4 0 C4 1.32 4 2.64 4 4 C4.928125 3.690625 4.928125 3.690625 5.875 3.375 C6.926875 3.189375 6.926875 3.189375 8 3 C8.66 3.66 9.32 4.32 10 5 C6.7 5.66 3.4 6.32 0 7 C0 4.69 0 2.38 0 0 Z " fill="#D9233C" transform="translate(53,42)"/>
<path d="M0 0 C0.70125 0.01417969 1.4025 0.02835938 2.125 0.04296875 C3.176875 0.05263672 3.176875 0.05263672 4.25 0.0625 C6.125 0.23046875 6.125 0.23046875 8.125 1.23046875 C8.125 1.89046875 8.125 2.55046875 8.125 3.23046875 C4.165 2.90046875 0.205 2.57046875 -3.875 2.23046875 C-1.875 0.23046875 -1.875 0.23046875 0 0 Z " fill="#DD3B42" transform="translate(40.875,35.76953125)"/>
</svg>
